<?xml version="1.0" encoding="iso-8859-1"?>
<!-- Generator: Adobe Illustrator 22.0.0, SVG Export Plug-In . SVG Version: 6.00 Build 0)  -->
<svg version="1.1" xmlns="http://www.w3.org/2000/svg" xmlns:xlink="http://www.w3.org/1999/xlink" x="0px" y="0px"
	 viewBox="0 0 347.794 430" style="enable-background:new 0 0 347.794 430;" xml:space="preserve">
<g id="simple-puzzle-piece-pattern-9">
	<g>
		<path d="M175.478,2c24.177,0,43.846,19.669,43.846,43.846c0,13.707-6.275,26.381-17.216,34.773
			c-0.68,0.522-0.952,1.418-0.677,2.23c0.275,0.811,1.037,1.357,1.894,1.357h142.47V428H2V290.921
			c8.991,9.344,21.242,14.609,34.36,14.609c26.382,0,47.846-21.463,47.846-47.846c0-26.382-21.463-47.846-47.846-47.846
			c-13.119,0-25.37,5.264-34.36,14.609V84.206h145.631c0.857,0,1.619-0.546,1.894-1.357c0.275-0.811,0.003-1.708-0.677-2.23
			c-10.941-8.392-17.216-21.067-17.216-34.773C131.632,21.669,151.301,2,175.478,2 M175.478,0c-25.32,0-45.846,20.526-45.846,45.846
			c0,14.832,7.074,27.981,17.999,36.36H0v147.631c8.38-10.925,21.528-17.999,36.36-17.999c25.32,0,45.846,20.526,45.846,45.846
			c0,25.32-20.526,45.846-45.846,45.846c-14.832,0-27.981-7.074-36.36-17.999V430h347.794V82.206h-144.47
			c10.925-8.38,17.999-21.528,17.999-36.36C221.324,20.526,200.798,0,175.478,0L175.478,0z"/>
	</g>
</g>
<g id="Layer_1">
</g>
</svg>
