<?xml version="1.0" encoding="iso-8859-1"?>
<!-- Generator: Adobe Illustrator 22.0.0, SVG Export Plug-In . SVG Version: 6.00 Build 0)  -->
<svg version="1.1" xmlns="http://www.w3.org/2000/svg" xmlns:xlink="http://www.w3.org/1999/xlink" x="0px" y="0px"
	 viewBox="0 0 347.794 430" style="enable-background:new 0 0 347.794 430;" xml:space="preserve">
<g id="simple-puzzle-piece-pattern-7">
	<g>
		<path d="M175.478,2c24.177,0,43.846,19.669,43.846,43.846c0,13.707-6.275,26.381-17.216,34.773
			c-0.68,0.522-0.952,1.418-0.677,2.23c0.275,0.811,1.037,1.357,1.894,1.357h142.47V218.29c-8.68-7.522-19.593-11.614-31.199-11.614
			c-26.382,0-47.846,21.463-47.846,47.846s21.463,47.846,47.846,47.846c11.606,0,22.518-4.092,31.199-11.614V428H2V84.206h145.631
			c0.857,0,1.619-0.546,1.894-1.357c0.275-0.811,0.003-1.708-0.677-2.23c-10.941-8.392-17.216-21.067-17.216-34.773
			C131.632,21.669,151.301,2,175.478,2 M175.478,0c-25.32,0-45.846,20.526-45.846,45.846c0,14.832,7.074,27.981,17.999,36.36H0V430
			h347.794V286.081c-8.352,8.783-20.121,14.287-33.199,14.287c-25.32,0-45.846-20.526-45.846-45.846
			c0-25.32,20.526-45.846,45.846-45.846c13.077,0,24.846,5.504,33.199,14.287V82.206h-144.47
			c10.925-8.38,17.999-21.528,17.999-36.36C221.324,20.526,200.798,0,175.478,0L175.478,0z"/>
	</g>
</g>
<g id="Layer_1">
</g>
</svg>
