<?xml version="1.0" encoding="iso-8859-1"?>
<!-- Generator: Adobe Illustrator 22.0.0, SVG Export Plug-In . SVG Version: 6.00 Build 0)  -->
<svg version="1.1" xmlns="http://www.w3.org/2000/svg" xmlns:xlink="http://www.w3.org/1999/xlink" x="0px" y="0px"
	 viewBox="0 0 430 423.768" style="enable-background:new 0 0 430 423.768;" xml:space="preserve">
<g id="simple-puzzle-piece-pattern-3">
	<g>
		<path d="M428,2v338.754H287.624c-0.857,0-1.619,0.546-1.894,1.357c-0.275,0.811-0.003,1.708,0.677,2.23
			c10.775,8.265,16.955,20.747,16.955,34.246c0,23.81-19.371,43.181-43.181,43.181S217,402.397,217,378.587
			c0-13.499,6.18-25.981,16.955-34.246c0.68-0.522,0.952-1.418,0.677-2.23c-0.275-0.811-1.037-1.357-1.894-1.357H89.246V194.628
			c0-0.906-0.609-1.698-1.484-1.932c-0.172-0.046-0.345-0.068-0.516-0.068c-0.703,0-1.37,0.372-1.733,1.003
			c-7.979,13.87-22.836,22.485-38.774,22.485C22.07,216.116,2,196.046,2,171.377c0-24.669,20.07-44.739,44.739-44.739
			c15.937,0,30.794,8.616,38.774,22.485c0.363,0.631,1.031,1.003,1.733,1.003c0.171,0,0.345-0.022,0.516-0.068
			c0.875-0.234,1.484-1.026,1.484-1.932V2H428 M430,0H87.246v148.126c-8.068-14.023-23.168-23.488-40.507-23.488
			C20.926,124.638,0,145.563,0,171.377c0,25.813,20.926,46.739,46.739,46.739c17.34,0,32.44-9.465,40.507-23.488v148.126h145.492
			C221.972,351.012,215,363.97,215,378.587c0,24.953,20.228,45.181,45.181,45.181s45.181-20.228,45.181-45.181
			c0-14.617-6.972-27.575-17.738-35.833H430V0L430,0z"/>
	</g>
</g>
<g id="Layer_1">
</g>
</svg>
