<svg width="192" height="192" viewBox="0 0 192 192" fill="none" xmlns="http://www.w3.org/2000/svg">
<mask id="mask0_26_99" style="mask-type:alpha" maskUnits="userSpaceOnUse" x="0" y="0" width="192" height="192">
<path d="M117 0.5C130.531 0.5 141.5 11.469 141.5 25C141.5 31.4346 139.019 37.288 134.962 41.6602L134.182 42.5H191.5V191.5H42.5V134.182L41.6602 134.962C37.288 139.019 31.4346 141.5 25 141.5C11.469 141.5 0.5 130.531 0.5 117C0.5 103.469 11.469 92.5 25 92.5C31.4344 92.5 37.2881 94.9802 41.6602 99.0371L42.5 99.8174V42.5H99.8184L99.0381 41.6602C94.9808 37.288 92.5 31.4346 92.5 25C92.5 11.469 103.469 0.5 117 0.5Z" fill="#D9D9D9" stroke="black"/>
</mask>
<g mask="url(#mask0_26_99)">
<path d="M716 412H-1100V-278H716V412ZM-654.2 239H-585.8C-575.977 239 -566.711 238.189 -558 236.576V290H-408V238.713C-401.719 240.903 -394.448 242 -386.188 242C-375.388 242 -366.188 240 -358.588 236C-350.988 232 -344.488 226.8 -339.088 220.4L-308.787 239.6V91.0996H-338.787V175.7C-338.787 185.7 -340.787 193.7 -344.787 199.7C-348.587 205.5 -353.288 209.6 -358.888 212C-361.261 213.017 -363.635 213.815 -366.008 214.401C-366.326 200.871 -377.393 190 -391 190C-396.686 190 -401.928 191.9 -406.128 195.098C-406.914 192.945 -407.538 190.579 -408 188V140H-408.987V91.0996H-438.987V140H-464.671C-460.532 144.461 -458 150.435 -458 157C-458 170.588 -468.841 181.644 -482.346 181.991C-475.116 167.463 -471.5 151.166 -471.5 133.1C-471.5 111.9 -476.4 93.3995 -486.2 77.5996C-496 61.7998 -509.5 49.5999 -526.7 41C-543.7 32.2 -563.2 27.7998 -585.2 27.7998H-654.2V239ZM-212.553 88.4004C-224.353 88.4004 -235.253 89.7997 -245.253 92.5996C-255.053 95.1996 -263.553 98 -270.753 101V127.4C-261.753 122.2 -252.753 118.6 -243.753 116.6C-234.553 114.4 -225.253 113.3 -215.854 113.3C-203.054 113.3 -192.753 115.6 -184.953 120.2C-177.153 124.8 -173.253 132.6 -173.253 143.6V149C-179.453 145.6 -186.353 143.2 -193.953 141.8C-201.553 140.2 -209.553 139.4 -217.953 139.4C-225.753 139.4 -233.453 140.2 -241.053 141.8C-248.453 143.4 -255.253 146.1 -261.453 149.9C-267.453 153.7 -272.254 158.7 -275.854 164.9C-279.453 171.1 -281.253 178.9 -281.253 188.3C-281.253 199.9 -278.353 209.7 -272.553 217.7C-266.553 225.7 -259.053 231.8 -250.053 236C-240.853 240.2 -231.453 242.3 -221.854 242.3C-211.654 242.3 -202.753 240.8 -195.153 237.8C-187.553 234.6 -180.453 230 -173.854 224L-143.553 239.6V146.3C-143.553 133.5 -146.654 122.8 -152.854 114.2C-159.053 105.6 -167.353 99.2 -177.753 95C-188.153 90.6 -199.753 88.4004 -212.553 88.4004ZM65.0781 88.4004C49.8781 88.4004 36.4779 91.9004 24.8779 98.9004C13.2782 105.9 4.27787 115.3 -2.12207 127.1C-8.52207 138.7 -11.7217 151.5 -11.7217 165.5C-11.7217 176.3 -9.82148 186.4 -6.02148 195.8C-2.22154 205 3.07807 213.1 9.87793 220.1C16.6779 226.9 24.5782 232.3 33.5781 236.3C42.7781 240.1 52.6783 242 63.2783 242C71.8781 242 79.6779 240.9 86.6777 238.7C93.8776 236.3 100.378 233.4 106.178 230V198.5C100.978 204.1 94.9777 208.5 88.1777 211.7C81.5778 214.9 74.378 216.5 66.5781 216.5C57.5782 216.5 49.3785 214.1 41.9785 209.3C34.7785 204.5 28.9781 198.1 24.5781 190.1C20.3782 182.1 18.2783 173.4 18.2783 164C18.2783 154.2 20.2783 145.6 24.2783 138.2C28.4783 130.6 34.178 124.6 41.3779 120.2C48.5778 115.8 56.6779 113.6 65.6777 113.6C73.2777 113.6 80.2778 115.2 86.6777 118.4C93.2776 121.4 99.2778 125.8 104.678 131.6V99.2002C99.4778 95.4003 93.2781 92.6996 86.0781 91.0996C79.0782 89.2996 72.0781 88.4004 65.0781 88.4004ZM-29.0752 88.7002C-37.6751 88.7002 -45.9747 90.6005 -53.9746 94.4004C-61.9746 98.0004 -68.6752 103.3 -74.0752 110.3L-104.675 91.4004V239H-74.6748V162.8C-74.6748 151.8 -72.3754 142.9 -67.7754 136.1C-63.1754 129.3 -57.4748 124.4 -50.6748 121.4C-43.6748 118.2 -36.6748 116.6 -29.6748 116.6C-27.4749 116.6 -25.3749 116.8 -23.375 117.2C-21.375 117.4 -19.5746 118 -17.9746 119V89.9004C-19.5746 89.5004 -21.2752 89.2 -23.0752 89C-24.8751 88.8 -26.8753 88.7002 -29.0752 88.7002ZM138.489 239H168.489V154.4C168.489 146.001 170.289 139 173.889 133.4C177.689 127.8 182.589 123.7 188.589 121.1C194.589 118.3 200.889 116.9 207.489 116.9C217.889 116.9 225.689 120 230.889 126.2C236.289 132.4 238.989 141.8 238.989 154.4V239H268.989V145.4C268.989 133.6 267.089 123.4 263.289 114.8C259.489 106.2 253.689 99.6 245.889 95C238.289 90.4001 228.589 88.0996 216.789 88.0996C205.589 88.0996 195.689 90.4 187.089 95C178.689 99.5999 171.889 105.1 166.689 111.5V19.4004H138.489V239ZM-211.953 160.7C-203.153 160.7 -195.653 161.8 -189.453 164C-183.253 166 -177.853 168.3 -173.253 170.9V201.5C-178.053 207.1 -183.754 211.5 -190.354 214.7C-196.953 217.9 -204.753 219.5 -213.753 219.5C-220.353 219.5 -226.554 218.5 -232.354 216.5C-238.153 214.3 -242.853 211 -246.453 206.6C-249.853 202.2 -251.553 196.699 -251.553 190.1C-251.553 183.1 -249.553 177.5 -245.553 173.3C-241.553 168.9 -236.553 165.7 -230.553 163.7C-224.353 161.7 -218.153 160.7 -211.953 160.7ZM-574.4 55.7002C-563.001 55.7002 -553 57.9998 -544.4 62.5996C-535.6 66.9996 -528.2 72.8999 -522.2 80.2998C-516.2 87.6998 -511.7 96.1 -508.7 105.5C-505.5 114.7 -503.9 124.1 -503.9 133.7C-503.9 135.834 -503.966 137.934 -504.092 140H-558V207.935C-566.522 210.244 -575.989 211.4 -586.4 211.4H-623V55.7002H-574.4ZM-504.432 144.123C-505.03 149.861 -506.136 155.329 -507.751 160.527C-507.914 159.375 -508 158.197 -508 157C-508 152.29 -506.697 147.884 -504.432 144.123ZM-403.236 -77.4004C-407.97 -77.4004 -412.17 -76.2337 -415.837 -73.9004C-419.437 -71.6337 -422.236 -68.5329 -424.236 -64.5996C-426.236 -60.7331 -427.236 -56.3335 -427.236 -51.4004C-427.236 -46.4671 -426.136 -42.0668 -423.937 -38.2002C-421.67 -34.3335 -418.603 -31.2996 -414.736 -29.0996C-410.87 -26.8998 -406.503 -25.7998 -401.637 -25.7998C-398.17 -25.7998 -394.904 -26.2999 -391.837 -27.2998C-388.77 -28.3665 -386.137 -29.7337 -383.937 -31.4004V-41.2002C-385.47 -39.6669 -387.17 -38.3335 -389.037 -37.2002C-390.904 -36.1336 -392.87 -35.3002 -394.937 -34.7002C-396.936 -34.1669 -399.036 -33.9004 -401.236 -33.9004C-405.236 -33.9004 -408.504 -34.8335 -411.037 -36.7002C-413.57 -38.6334 -415.404 -41.0998 -416.537 -44.0996L-379.337 -53.2002C-379.67 -56.4668 -380.437 -59.5667 -381.637 -62.5C-382.837 -65.4333 -384.437 -68.0002 -386.437 -70.2002C-388.437 -72.4669 -390.837 -74.2333 -393.637 -75.5C-396.437 -76.7666 -399.636 -77.4003 -403.236 -77.4004ZM-482.8 -68.0996C-484.8 -70.8995 -487.3 -73.1332 -490.3 -74.7998C-493.3 -76.5331 -496.834 -77.4004 -500.9 -77.4004C-505.167 -77.4003 -509.1 -76.3335 -512.7 -74.2002C-516.3 -72.0669 -519.2 -69.0668 -521.4 -65.2002C-523.534 -61.4002 -524.6 -56.8663 -524.6 -51.5996C-524.6 -46.3998 -523.534 -41.8665 -521.4 -38C-519.2 -34.2 -516.3 -31.2329 -512.7 -29.0996C-509.034 -27.033 -505.033 -26 -500.7 -26C-496.767 -26 -493.466 -26.8004 -490.8 -28.4004C-488.133 -30.0004 -485.733 -32.0664 -483.6 -34.5996L-472.8 -26.9004V-100.2H-482.8V-68.0996ZM-653.6 -27H-642.6L-634.6 -45.5H-602.3L-594.5 -27H-583.2L-614 -97.5H-622.9L-653.6 -27ZM-551.462 -77.2998C-554.928 -77.2998 -557.962 -76.6001 -560.562 -75.2002C-563.162 -73.8002 -565.362 -71.9998 -567.162 -69.7998L-577.361 -76.2002V-27H-567.361V-55.2002C-567.361 -58.6001 -566.695 -61.2669 -565.361 -63.2002C-564.028 -65.1333 -562.395 -66.4998 -560.462 -67.2998C-558.529 -68.0998 -556.695 -68.5 -554.962 -68.5C-553.162 -68.5 -551.428 -68.0668 -549.762 -67.2002C-548.028 -66.4002 -546.628 -65.0329 -545.562 -63.0996C-544.428 -61.1663 -543.861 -58.5332 -543.861 -55.2002V-27H-533.861V-58.2002C-533.861 -62.0666 -534.528 -65.4333 -535.861 -68.2998C-537.195 -71.1665 -539.162 -73.3671 -541.762 -74.9004C-544.362 -76.5003 -547.595 -77.2998 -551.462 -77.2998ZM-434.584 -77.0996C-437.451 -77.0996 -440.217 -76.4668 -442.884 -75.2002C-445.55 -74.0002 -447.784 -72.2337 -449.584 -69.9004L-459.783 -76.2002V-27H-449.783V-52.4004C-449.783 -56.0669 -449.017 -59.0332 -447.483 -61.2998C-445.95 -63.5665 -444.05 -65.2002 -441.783 -66.2002C-439.45 -67.2667 -437.116 -67.7998 -434.783 -67.7998C-434.05 -67.7998 -433.35 -67.7329 -432.684 -67.5996C-432.017 -67.5329 -431.417 -67.3333 -430.884 -67V-76.7002C-431.417 -76.8335 -431.984 -76.9333 -432.584 -77C-433.184 -77.0666 -433.851 -77.0996 -434.584 -77.0996ZM-498.9 -68.9004C-495.967 -68.9004 -493.266 -68.1329 -490.8 -66.5996C-488.333 -65.133 -486.333 -63.0999 -484.8 -60.5C-483.267 -57.9667 -482.5 -55.0334 -482.5 -51.7002C-482.5 -48.3669 -483.266 -45.3998 -484.8 -42.7998C-486.266 -40.1998 -488.234 -38.1668 -490.7 -36.7002C-493.167 -35.2336 -495.9 -34.5 -498.9 -34.5C-502.167 -34.5001 -504.967 -35.3005 -507.3 -36.9004C-509.633 -38.5004 -511.434 -40.6002 -512.7 -43.2002C-513.967 -45.8668 -514.6 -48.7003 -514.6 -51.7002C-514.6 -55.1668 -513.9 -58.1669 -512.5 -60.7002C-511.033 -63.3001 -509.1 -65.3002 -506.7 -66.7002C-504.3 -68.1668 -501.7 -68.9003 -498.9 -68.9004ZM-403.236 -69.2002C-399.637 -69.2001 -396.636 -68.2001 -394.236 -66.2002C-391.836 -64.2002 -390.237 -61.7001 -389.437 -58.7002L-417.236 -51.5L-417.537 -52.2002C-417.537 -55.0668 -417.003 -57.7666 -415.937 -60.2998C-414.87 -62.8998 -413.27 -65.0335 -411.137 -66.7002C-409.003 -68.3668 -406.37 -69.2002 -403.236 -69.2002ZM-605.9 -54.2998H-631L-618.5 -85.4004L-605.9 -54.2998ZM-407.137 -88.5996H-399.937L-386.837 -101.5L-397.837 -104.1L-407.137 -88.5996Z" fill="url(#paint0_linear_26_99)"/>
</g>
<defs>
<linearGradient id="paint0_linear_26_99" x1="716" y1="-278" x2="-1100" y2="412" gradientUnits="userSpaceOnUse">
<stop stop-color="#002D88"/>
<stop offset="1" stop-color="#5B0069"/>
</linearGradient>
</defs>
</svg>
