<?xml version="1.0" encoding="iso-8859-1"?>
<!-- Generator: Adobe Illustrator 22.0.0, SVG Export Plug-In . SVG Version: 6.00 Build 0)  -->
<svg version="1.1" xmlns="http://www.w3.org/2000/svg" xmlns:xlink="http://www.w3.org/1999/xlink" x="0px" y="0px"
	 viewBox="0 0 430 430" style="enable-background:new 0 0 430 430;" xml:space="preserve">
<g id="simple-puzzle-piece-pattern-1">
	<g>
		<path d="M428,2v172.344c-11.495-12.765-27.571-19.98-44.909-19.98c-33.435,0-60.636,27.201-60.636,60.636
			s27.201,60.636,60.636,60.636c17.338,0,33.414-7.215,44.909-19.98V428H250.885c15.416-11.354,24.752-29.499,24.752-48.818
			c0-33.435-27.201-60.636-60.636-60.636s-60.636,27.201-60.636,60.636c0,19.319,9.336,37.464,24.752,48.818H2V2H428 M430,0H0v430
			h185.83c-17.593-10.121-29.467-29.065-29.467-50.818c0-32.384,26.252-58.636,58.636-58.636s58.636,26.252,58.636,58.636
			c0,21.753-11.874,40.697-29.467,50.818H430V250.075c-10.695,14.279-27.696,23.561-46.909,23.561
			c-32.384,0-58.636-26.253-58.636-58.636c0-32.384,26.252-58.636,58.636-58.636c19.213,0,36.214,9.282,46.909,23.561V0L430,0z"/>
	</g>
</g>
<g id="Layer_1">
</g>
</svg>
