<svg width="1816" height="690" viewBox="0 0 1816 690" fill="none" xmlns="http://www.w3.org/2000/svg">
<path d="M1816 690H0V0H1816V690ZM445.8 517H514.2C524.023 517 533.289 516.189 542 514.576V568H692V516.713C698.281 518.903 705.552 520 713.812 520C724.612 520 733.812 518 741.412 514C749.012 510 755.512 504.8 760.912 498.4L791.213 517.6V369.1H761.213V453.7C761.213 463.7 759.213 471.7 755.213 477.7C751.413 483.5 746.712 487.6 741.112 490C738.739 491.017 736.365 491.815 733.992 492.401C733.674 478.871 722.607 468 709 468C703.314 468 698.072 469.9 693.872 473.098C693.086 470.945 692.462 468.579 692 466V418H691.013V369.1H661.013V418H635.329C639.468 422.461 642 428.435 642 435C642 448.588 631.159 459.644 617.654 459.991C624.884 445.463 628.5 429.166 628.5 411.1C628.5 389.9 623.6 371.4 613.8 355.6C604 339.8 590.5 327.6 573.3 319C556.3 310.2 536.8 305.8 514.8 305.8H445.8V517ZM887.447 366.4C875.647 366.4 864.747 367.8 854.747 370.6C844.947 373.2 836.447 376 829.247 379V405.4C838.247 400.2 847.247 396.6 856.247 394.6C865.447 392.4 874.747 391.3 884.146 391.3C896.946 391.3 907.247 393.6 915.047 398.2C922.847 402.8 926.747 410.6 926.747 421.6V427C920.547 423.6 913.647 421.2 906.047 419.8C898.447 418.2 890.447 417.4 882.047 417.4C874.247 417.4 866.547 418.2 858.947 419.8C851.547 421.4 844.747 424.1 838.547 427.9C832.547 431.7 827.746 436.7 824.146 442.9C820.547 449.1 818.747 456.9 818.747 466.3C818.747 477.9 821.647 487.7 827.447 495.7C833.447 503.7 840.947 509.8 849.947 514C859.147 518.2 868.547 520.3 878.146 520.3C888.346 520.3 897.247 518.8 904.847 515.8C912.447 512.6 919.547 508 926.146 502L956.447 517.6V424.3C956.447 411.5 953.346 400.8 947.146 392.2C940.947 383.6 932.647 377.2 922.247 373C911.847 368.6 900.247 366.4 887.447 366.4ZM1217 278C1203.19 278 1192 289.193 1192 303C1192 309.566 1194.53 315.539 1198.67 320H1142V369.472C1139.52 370.181 1137.1 371.014 1134.74 371.969C1131.75 370.701 1128.45 370 1125 370C1111.19 370 1100 381.193 1100 395C1100 396.879 1100.21 398.709 1100.6 400.47C1099.65 401.97 1098.74 403.513 1097.88 405.1C1091.48 416.7 1088.28 429.5 1088.28 443.5C1088.28 454.3 1090.18 464.4 1093.98 473.8C1097.78 483 1103.08 491.1 1109.88 498.1C1116.68 504.9 1124.58 510.3 1133.58 514.3C1142.78 518.1 1152.68 520 1163.28 520C1171.88 520 1179.68 518.9 1186.68 516.7C1193.88 514.3 1200.38 511.4 1206.18 508V476.5C1200.98 482.1 1194.98 486.5 1188.18 489.7C1181.58 492.9 1174.38 494.5 1166.58 494.5C1157.58 494.5 1149.38 492.1 1141.98 487.3C1134.78 482.5 1128.98 476.1 1124.58 468.1C1120.38 460.1 1118.28 451.4 1118.28 442C1118.28 433.781 1119.69 426.406 1122.5 419.875C1123.32 419.957 1124.16 420 1125 420C1131.57 420 1137.54 417.468 1142 413.328V470H1238.49V517H1268.49V470H1292V397.67C1296.97 395.823 1302.13 394.9 1307.49 394.9C1317.89 394.9 1325.69 398 1330.89 404.2C1336.29 410.4 1338.99 419.8 1338.99 432.4V517H1368.99V423.4C1368.99 411.6 1367.09 401.4 1363.29 392.8C1359.49 384.2 1353.69 377.6 1345.89 373C1338.29 368.4 1328.59 366.1 1316.79 366.1C1307.66 366.1 1299.4 367.627 1292 370.682V320H1266.69V297.4H1241.37C1238.83 286.289 1228.88 278 1217 278ZM1070.92 366.7C1062.32 366.7 1054.03 368.6 1046.03 372.4C1038.03 376 1031.32 381.3 1025.92 388.3L995.325 369.4V517H1025.33V440.8C1025.33 429.8 1027.62 420.9 1032.22 414.1C1036.82 407.3 1042.53 402.4 1049.33 399.4C1056.33 396.2 1063.33 394.6 1070.33 394.6C1072.53 394.6 1074.63 394.8 1076.62 395.2C1078.62 395.4 1080.43 396 1082.03 397V367.9C1080.43 367.5 1078.72 367.2 1076.92 367C1075.12 366.8 1073.12 366.7 1070.92 366.7ZM888.047 438.7C896.847 438.7 904.347 439.8 910.547 442C916.747 444 922.147 446.3 926.747 448.9V479.5C921.947 485.1 916.246 489.5 909.646 492.7C903.047 495.9 895.247 497.5 886.247 497.5C879.647 497.5 873.446 496.5 867.646 494.5C861.847 492.3 857.147 489 853.547 484.6C850.147 480.2 848.447 474.699 848.447 468.1C848.447 461.1 850.447 455.5 854.447 451.3C858.447 446.9 863.447 443.7 869.447 441.7C875.647 439.7 881.847 438.7 888.047 438.7ZM525.6 333.7C536.999 333.7 547 336 555.6 340.6C564.4 345 571.8 350.9 577.8 358.3C583.8 365.7 588.3 374.1 591.3 383.5C594.5 392.7 596.1 402.1 596.1 411.7C596.1 413.834 596.034 415.934 595.908 418H542V485.935C533.478 488.244 524.011 489.4 513.6 489.4H477V333.7H525.6ZM595.568 422.123C594.97 427.861 593.864 433.329 592.249 438.527C592.086 437.375 592 436.197 592 435C592 430.29 593.303 425.884 595.568 422.123ZM1238.49 320H1235.33C1236.52 318.712 1237.58 317.296 1238.49 315.777V320ZM696.764 200.6C692.03 200.6 687.83 201.766 684.163 204.1C680.563 206.366 677.764 209.467 675.764 213.4C673.764 217.267 672.764 221.666 672.764 226.6C672.764 231.533 673.864 235.933 676.063 239.8C678.33 243.666 681.397 246.7 685.264 248.9C689.13 251.1 693.497 252.2 698.363 252.2C701.83 252.2 705.096 251.7 708.163 250.7C711.23 249.634 713.863 248.266 716.063 246.6V236.8C714.53 238.333 712.83 239.666 710.963 240.8C709.096 241.866 707.13 242.7 705.063 243.3C703.064 243.833 700.964 244.1 698.764 244.1C694.764 244.1 691.496 243.166 688.963 241.3C686.43 239.367 684.596 236.9 683.463 233.9L720.663 224.8C720.33 221.533 719.563 218.433 718.363 215.5C717.163 212.567 715.563 210 713.563 207.8C711.563 205.533 709.163 203.767 706.363 202.5C703.563 201.233 700.364 200.6 696.764 200.6ZM617.2 209.9C615.2 207.1 612.7 204.867 609.7 203.2C606.7 201.467 603.166 200.6 599.1 200.6C594.833 200.6 590.9 201.667 587.3 203.8C583.7 205.933 580.8 208.933 578.6 212.8C576.466 216.6 575.4 221.134 575.4 226.4C575.4 231.6 576.466 236.133 578.6 240C580.8 243.8 583.7 246.767 587.3 248.9C590.966 250.967 594.967 252 599.3 252C603.233 252 606.534 251.2 609.2 249.6C611.867 248 614.267 245.934 616.4 243.4L627.2 251.1V177.8H617.2V209.9ZM446.4 251H457.4L465.4 232.5H497.7L505.5 251H516.8L486 180.5H477.1L446.4 251ZM548.538 200.7C545.072 200.7 542.038 201.4 539.438 202.8C536.838 204.2 534.638 206 532.838 208.2L522.639 201.8V251H532.639V222.8C532.639 219.4 533.305 216.733 534.639 214.8C535.972 212.867 537.605 211.5 539.538 210.7C541.471 209.9 543.305 209.5 545.038 209.5C546.838 209.5 548.572 209.933 550.238 210.8C551.972 211.6 553.372 212.967 554.438 214.9C555.572 216.834 556.139 219.467 556.139 222.8V251H566.139V219.8C566.139 215.933 565.472 212.567 564.139 209.7C562.805 206.834 560.838 204.633 558.238 203.1C555.638 201.5 552.405 200.7 548.538 200.7ZM665.416 200.9C662.549 200.9 659.783 201.533 657.116 202.8C654.45 204 652.216 205.766 650.416 208.1L640.217 201.8V251H650.217V225.6C650.217 221.933 650.983 218.967 652.517 216.7C654.05 214.434 655.95 212.8 658.217 211.8C660.55 210.733 662.884 210.2 665.217 210.2C665.95 210.2 666.65 210.267 667.316 210.4C667.983 210.467 668.583 210.667 669.116 211V201.3C668.583 201.166 668.016 201.067 667.416 201C666.816 200.933 666.149 200.9 665.416 200.9ZM601.1 209.1C604.033 209.1 606.734 209.867 609.2 211.4C611.667 212.867 613.667 214.9 615.2 217.5C616.733 220.033 617.5 222.967 617.5 226.3C617.5 229.633 616.734 232.6 615.2 235.2C613.734 237.8 611.766 239.833 609.3 241.3C606.833 242.766 604.1 243.5 601.1 243.5C597.833 243.5 595.033 242.7 592.7 241.1C590.367 239.5 588.566 237.4 587.3 234.8C586.033 232.133 585.4 229.3 585.4 226.3C585.4 222.833 586.1 219.833 587.5 217.3C588.967 214.7 590.9 212.7 593.3 211.3C595.7 209.833 598.3 209.1 601.1 209.1ZM696.764 208.8C700.363 208.8 703.364 209.8 705.764 211.8C708.164 213.8 709.763 216.3 710.563 219.3L682.764 226.5L682.463 225.8C682.463 222.933 682.997 220.233 684.063 217.7C685.13 215.1 686.73 212.966 688.863 211.3C690.997 209.633 693.63 208.8 696.764 208.8ZM494.1 223.7H469L481.5 192.6L494.1 223.7ZM692.863 189.4H700.063L713.163 176.5L702.163 173.9L692.863 189.4Z" fill="url(#paint0_linear_26_98)"/>
<defs>
<linearGradient id="paint0_linear_26_98" x1="1816" y1="5.4121e-05" x2="6.88e-05" y2="690" gradientUnits="userSpaceOnUse">
<stop stop-color="#002D88"/>
<stop offset="1" stop-color="#5B0069"/>
</linearGradient>
</defs>
</svg>
