<?xml version="1.0" encoding="iso-8859-1"?>
<!-- Generator: Adobe Illustrator 22.0.0, SVG Export Plug-In . SVG Version: 6.00 Build 0)  -->
<svg version="1.1" xmlns="http://www.w3.org/2000/svg" xmlns:xlink="http://www.w3.org/1999/xlink" x="0px" y="0px"
	 viewBox="0 0 432 360.904" style="enable-background:new 0 0 432 360.904;" xml:space="preserve">
<g id="simple-puzzle-piece-pattern-6">
	<path style="fill:none;stroke:#000000;stroke-width:2;stroke-linecap:round;stroke-linejoin:round;stroke-miterlimit:10;" d="
		M281.916,1c11.274,8.647,18.574,22.216,18.574,37.522c0,26.129-21.182,47.31-47.31,47.31s-47.31-21.181-47.31-47.31
		c0-15.306,7.3-28.874,18.574-37.522H72.096v135.01c-7.095-4.339-15.407-6.885-24.332-6.885C21.937,129.126,1,150.063,1,175.89
		s20.937,46.764,46.764,46.764c8.926,0,17.237-2.546,24.332-6.885v144.135h152.347c-11.274-8.647-18.574-22.216-18.574-37.522
		c0-26.128,21.181-47.31,47.31-47.31s47.31,21.182,47.31,47.31c0,15.306-7.3,28.874-18.574,37.522H431V1H281.916z"/>
</g>
<g id="Layer_1">
</g>
</svg>
