<?xml version="1.0" encoding="iso-8859-1"?>
<!-- Generator: Adobe Illustrator 22.0.0, SVG Export Plug-In . SVG Version: 6.00 Build 0)  -->
<svg version="1.1" xmlns="http://www.w3.org/2000/svg" xmlns:xlink="http://www.w3.org/1999/xlink" x="0px" y="0px"
	 viewBox="0 0 430 293.789" style="enable-background:new 0 0 430 293.789;" xml:space="preserve">
<g id="simple-puzzle-piece-pattern-8">
	<g>
		<path d="M358.559,2v122.707c0,0.857,0.546,1.619,1.357,1.894c0.211,0.072,0.428,0.106,0.642,0.106c0.61,0,1.201-0.28,1.587-0.783
			c7.03-9.165,17.646-14.421,29.127-14.421c20.251,0,36.727,16.476,36.727,36.727c0,20.251-16.476,36.727-36.727,36.727
			c-11.481,0-22.097-5.256-29.127-14.421c-0.386-0.503-0.977-0.783-1.587-0.783c-0.214,0-0.431,0.035-0.642,0.106
			c-0.811,0.275-1.357,1.037-1.357,1.894v120.036H68.77V172.217c0-0.818-0.498-1.554-1.258-1.857
			c-0.241-0.096-0.492-0.143-0.742-0.143c-0.538,0-1.065,0.217-1.45,0.622c-7.019,7.382-16.464,11.447-26.594,11.447
			C18.476,182.286,2,165.81,2,145.559c0-20.251,16.476-36.727,36.727-36.727c10.13,0,19.575,4.065,26.594,11.447
			c0.385,0.405,0.912,0.622,1.45,0.622c0.249,0,0.501-0.047,0.742-0.143c0.76-0.304,1.258-1.039,1.258-1.857V2h114.722
			c-7.614,7.6-11.89,17.805-11.89,28.714c0,22.457,18.27,40.727,40.727,40.727s40.727-18.27,40.727-40.727
			c0-10.91-4.276-21.114-11.89-28.714H358.559 M360.559,0H235.852c9.228,7.079,15.204,18.185,15.204,30.714
			c0,21.388-17.339,38.727-38.727,38.727c-21.388,0-38.727-17.339-38.727-38.727c0-12.529,5.976-23.636,15.204-30.714H66.77v118.901
			c-7.055-7.42-16.997-12.069-28.043-12.069C17.339,106.832,0,124.171,0,145.559s17.339,38.727,38.727,38.727
			c11.047,0,20.988-4.649,28.043-12.069v121.572h293.789V171.752c7.079,9.228,18.185,15.204,30.714,15.204
			c21.388,0,38.727-17.339,38.727-38.727s-17.339-38.727-38.727-38.727c-12.529,0-23.636,5.976-30.714,15.204V0L360.559,0z"/>
	</g>
</g>
<g id="Layer_1">
</g>
</svg>
