<?xml version="1.0" encoding="iso-8859-1"?>
<!-- Generator: Adobe Illustrator 22.0.0, SVG Export Plug-In . SVG Version: 6.00 Build 0)  -->
<svg version="1.1" xmlns="http://www.w3.org/2000/svg" xmlns:xlink="http://www.w3.org/1999/xlink" x="0px" y="0px"
	 viewBox="0 0 299.568 432" style="enable-background:new 0 0 299.568 432;" xml:space="preserve">
<g id="simple-puzzle-piece-pattern-5">
	<path style="fill:none;stroke:#000000;stroke-width:2;stroke-linecap:round;stroke-linejoin:round;stroke-miterlimit:10;" d="
		M298.568,241.163c-5.883,3.597-12.774,5.708-20.174,5.708c-21.413,0-38.772-17.359-38.772-38.772s17.359-38.772,38.772-38.772
		c7.4,0,14.291,2.111,20.174,5.708V63.098H180.702c4.909-6.496,7.854-14.557,7.854-23.326C188.556,18.359,171.197,1,149.784,1
		s-38.772,17.359-38.772,38.772c0,8.769,2.946,16.831,7.854,23.326H1v118.196c7.17-9.347,18.419-15.4,31.109-15.4
		c21.663,0,39.225,17.562,39.225,39.225c0,21.663-17.562,39.225-39.225,39.225c-12.69,0-23.94-6.053-31.109-15.4v131.721h123.606
		c-9.347,7.17-15.4,18.419-15.4,31.109c0,21.663,17.562,39.225,39.225,39.225s39.225-17.562,39.225-39.225
		c0-12.69-6.053-23.94-15.4-31.109h126.311V241.163z"/>
</g>
<g id="Layer_1">
</g>
</svg>
