<svg width="192" height="150" viewBox="0 0 192 150" fill="none" xmlns="http://www.w3.org/2000/svg">
<mask id="mask0_26_86" style="mask-type:alpha" maskUnits="userSpaceOnUse" x="0" y="0" width="192" height="150">
<path d="M55.5605 0.5C51.782 4.9471 49.5 10.7069 49.5 17C49.5 31.0833 60.9167 42.5 75 42.5C89.0833 42.5 100.5 31.0833 100.5 17C100.5 10.7072 98.2187 4.94711 94.4404 0.5H149.5V57.8184L150.34 57.0381C154.712 52.9808 160.565 50.5 167 50.5C180.531 50.5 191.5 61.469 191.5 75C191.5 88.531 180.531 99.5 167 99.5C160.565 99.5 154.712 97.0192 150.34 92.9619L149.5 92.1816V149.5H0.5V0.5H55.5605Z" fill="#D9D9D9" stroke="black"/>
</mask>
<g mask="url(#mask0_26_86)">
<rect x="-542" y="-418" width="1816" height="690" fill="url(#paint0_linear_26_86)"/>
<path d="M-96.2 99V-112.2H-27.2C-5.2 -112.2 14.3 -107.8 31.3 -99C48.5 -90.4 62 -78.2 71.8 -62.4C81.6 -46.6 86.5 -28.1 86.5 -6.9C86.5 13.7 81.8 32 72.4 48C63 63.8 49.7 76.3 32.5 85.5C15.5 94.5 -4.59999 99 -27.8 99H-96.2ZM-65 71.4H-28.4C-10.8 71.4 4.10001 68.1 16.3 61.5C28.7 54.9 38.1 45.8 44.5 34.2C50.9 22.4 54.1 8.9 54.1 -6.3C54.1 -15.9 52.5 -25.3 49.3 -34.5C46.3 -43.9 41.8 -52.3 35.8 -59.7C29.8 -67.1 22.4 -73 13.6 -77.4C5.00001 -82 -5 -84.3 -16.4 -84.3H-65V71.4ZM171.813 102C153.813 102 140.513 96.8 131.913 86.4C123.313 75.8 119.013 61.9 119.013 44.7V-48.9H149.013V35.7C149.013 45.7 150.613 53.6 153.813 59.4C157.213 65.2 161.413 69.4 166.413 72C171.613 74.4 176.913 75.6 182.313 75.6C187.913 75.6 193.513 74.4 199.113 72C204.713 69.6 209.413 65.5 213.213 59.7C217.213 53.7 219.213 45.7 219.213 35.7V-48.9H249.213V99.6L218.913 80.4C213.513 86.8 207.013 92 199.413 96C191.813 100 182.613 102 171.813 102ZM336.147 102.3C326.547 102.3 317.147 100.2 307.947 96C298.947 91.8 291.447 85.7 285.447 77.7C279.647 69.7 276.747 59.9 276.747 48.3C276.747 38.9 278.547 31.1 282.147 24.9C285.747 18.7 290.547 13.7 296.547 9.89999C302.747 6.1 309.547 3.4 316.947 1.8C324.547 0.199996 332.247 -0.600005 340.047 -0.600005C348.447 -0.600005 356.447 0.199996 364.047 1.8C371.647 3.2 378.547 5.6 384.747 9V3.59999C384.747 -7.40001 380.847 -15.2 373.047 -19.8C365.247 -24.4 354.947 -26.7 342.147 -26.7C332.747 -26.7 323.447 -25.6 314.247 -23.4C305.247 -21.4 296.247 -17.8 287.247 -12.6V-39C294.447 -42 302.947 -44.8 312.747 -47.4C322.747 -50.2 333.647 -51.6 345.447 -51.6C358.247 -51.6 369.847 -49.4 380.247 -45C390.647 -40.8 398.947 -34.4 405.147 -25.8C411.347 -17.2 414.447 -6.50001 414.447 6.3V99.6L384.147 84C377.547 90 370.447 94.6 362.847 97.8C355.247 100.8 346.347 102.3 336.147 102.3ZM344.247 79.5C353.247 79.5 361.047 77.9 367.647 74.7C374.247 71.5 379.947 67.1 384.747 61.5V30.9C380.147 28.3 374.747 26 368.547 24C362.347 21.8 354.847 20.7 346.047 20.7C339.847 20.7 333.647 21.7 327.447 23.7C321.447 25.7 316.447 28.9 312.447 33.3C308.447 37.5 306.447 43.1 306.447 50.1C306.447 56.7 308.147 62.2 311.547 66.6C315.147 71 319.847 74.3 325.647 76.5C331.447 78.5 337.647 79.5 344.247 79.5ZM453.325 99V-48.6L483.925 -29.7C489.325 -36.7 496.025 -42 504.025 -45.6C512.025 -49.4 520.325 -51.3 528.925 -51.3C531.125 -51.3 533.125 -51.2 534.925 -51C536.725 -50.8 538.425 -50.5 540.025 -50.1V-21C538.425 -22 536.625 -22.6 534.625 -22.8C532.625 -23.2 530.525 -23.4 528.325 -23.4C521.325 -23.4 514.325 -21.8 507.325 -18.6C500.525 -15.6 494.825 -10.7 490.225 -3.90001C485.625 2.89999 483.325 11.8 483.325 22.8V99H453.325ZM621.278 102C610.678 102 600.778 100.1 591.578 96.3C582.578 92.3 574.678 86.9 567.878 80.1C561.078 73.1 555.778 65 551.978 55.8C548.178 46.4 546.278 36.3 546.278 25.5C546.278 11.5 549.478 -1.30001 555.878 -12.9C562.278 -24.7 571.278 -34.1 582.878 -41.1C594.478 -48.1 607.878 -51.6 623.078 -51.6C630.078 -51.6 637.078 -50.7 644.078 -48.9C651.278 -47.3 657.478 -44.6 662.678 -40.8V-8.4C657.278 -14.2 651.278 -18.6 644.678 -21.6C638.278 -24.8 631.278 -26.4 623.678 -26.4C614.678 -26.4 606.578 -24.2 599.378 -19.8C592.178 -15.4 586.478 -9.40001 582.278 -1.80001C578.278 5.59999 576.278 14.2 576.278 24C576.278 33.4 578.378 42.1 582.578 50.1C586.978 58.1 592.778 64.5 599.978 69.3C607.378 74.1 615.578 76.5 624.578 76.5C632.378 76.5 639.578 74.9 646.178 71.7C652.978 68.5 658.978 64.1 664.178 58.5V90C658.378 93.4 651.878 96.3 644.678 98.7C637.678 100.9 629.878 102 621.278 102ZM696.489 99V-120.6H724.689V-28.5C729.889 -34.9 736.689 -40.4 745.089 -45C753.689 -49.6 763.589 -51.9 774.789 -51.9C786.589 -51.9 796.289 -49.6 803.889 -45C811.689 -40.4 817.489 -33.8 821.289 -25.2C825.089 -16.6 826.989 -6.4 826.989 5.4V99H796.989V14.4C796.989 1.79999 794.289 -7.60001 788.889 -13.8C783.689 -20 775.889 -23.1 765.489 -23.1C758.889 -23.1 752.589 -21.7 746.589 -18.9C740.589 -16.3 735.689 -12.2 731.889 -6.60001C728.289 -1 726.489 6 726.489 14.4V99H696.489Z" fill="white"/>
</g>
<defs>
<linearGradient id="paint0_linear_26_86" x1="1274" y1="-418" x2="-542" y2="272" gradientUnits="userSpaceOnUse">
<stop stop-color="#002D88"/>
<stop offset="1" stop-color="#5B0069"/>
</linearGradient>
</defs>
</svg>
