<?xml version="1.0" encoding="iso-8859-1"?>
<!-- Generator: Adobe Illustrator 22.0.0, SVG Export Plug-In . SVG Version: 6.00 Build 0)  -->
<svg version="1.1" xmlns="http://www.w3.org/2000/svg" xmlns:xlink="http://www.w3.org/1999/xlink" x="0px" y="0px"
	 viewBox="0 0 432 347.255" style="enable-background:new 0 0 432 347.255;" xml:space="preserve">
<g id="simple-puzzle-piece-pattern-2">
	<path style="fill:none;stroke:#000000;stroke-width:2;stroke-linecap:round;stroke-linejoin:round;stroke-miterlimit:10;" d="
		M390.197,126.547c17.466,0,32.676,9.534,40.803,23.66V1H85.744v144.465C77.158,134,63.507,126.547,48.08,126.547
		c-26.002,0-47.08,21.078-47.08,47.08c0,26.002,21.078,47.08,47.08,47.08c15.426,0,29.077-7.453,37.664-18.918v144.465H222.5
		c-5.695-7.536-9.113-16.89-9.113-27.064c0-24.845,20.141-44.986,44.986-44.986c24.845,0,44.986,20.141,44.986,44.986
		c0,10.174-3.418,19.528-9.113,27.064H431V197.048c-8.127,14.126-23.337,23.66-40.803,23.66c-26.002,0-47.08-21.079-47.08-47.08
		C343.117,147.626,364.195,126.547,390.197,126.547z"/>
</g>
<g id="Layer_1">
</g>
</svg>
