<?xml version="1.0" encoding="iso-8859-1"?>
<!-- Generator: Adobe Illustrator 22.0.0, SVG Export Plug-In . SVG Version: 6.00 Build 0)  -->
<svg version="1.1" xmlns="http://www.w3.org/2000/svg" xmlns:xlink="http://www.w3.org/1999/xlink" x="0px" y="0px"
	 viewBox="0 0 423.768 430" style="enable-background:new 0 0 423.768 430;" xml:space="preserve">
<g id="simple-puzzle-piece-pattern-4">
	<g>
		<path style="fill:none;stroke:#000000;stroke-width:2;stroke-linecap:round;stroke-linejoin:round;stroke-miterlimit:10;" d="M171.377,2c24.669,0,44.739,20.07,44.739,44.739c0,15.937-8.616,30.794-22.485,38.774
			c-0.785,0.452-1.169,1.375-0.935,2.25c0.234,0.875,1.026,1.484,1.932,1.484h146.126V223.39c0,0.857,0.546,1.619,1.357,1.894
			c0.211,0.072,0.428,0.106,0.642,0.106c0.61,0,1.201-0.28,1.587-0.783c8.265-10.775,20.747-16.955,34.246-16.955
			c23.81,0,43.181,19.371,43.181,43.181s-19.371,43.181-43.181,43.181c-13.499,0-25.981-6.18-34.246-16.955
			c-0.386-0.503-0.977-0.783-1.587-0.783c-0.214,0-0.431,0.035-0.642,0.106c-0.811,0.275-1.357,1.037-1.357,1.894V428H205.762
			c9.182-8.861,14.354-20.921,14.354-33.833c0-26.016-21.165-47.181-47.181-47.181s-47.181,21.165-47.181,47.181
			c0,12.912,5.172,24.972,14.354,33.833H2V89.246h146.126c0.906,0,1.698-0.609,1.932-1.484c0.234-0.875-0.15-1.798-0.935-2.25
			c-13.87-7.979-22.485-22.837-22.485-38.774C126.638,22.07,146.708,2,171.377,2 M171.377,0c-25.813,0-46.739,20.926-46.739,46.739
			c0,17.339,9.465,32.44,23.488,40.507H0V430h145.492c-10.766-8.258-17.738-21.216-17.738-35.833
			c0-24.953,20.228-45.181,45.181-45.181s45.181,20.228,45.181,45.181c0,14.617-6.972,27.575-17.738,35.833h142.376V278.276
			c8.258,10.766,21.216,17.738,35.833,17.738c24.953,0,45.181-20.228,45.181-45.181c0-24.953-20.228-45.181-45.181-45.181
			c-14.617,0-27.575,6.972-35.833,17.738V87.246H194.628c14.023-8.068,23.488-23.168,23.488-40.507
			C218.116,20.926,197.19,0,171.377,0L171.377,0z"/>
	</g>
</g>
<g id="Layer_1">
</g>
</svg>
